<svg class="main-svg" xmlns="http://www.w3.org/2000/svg" xmlns:xlink="http://www.w3.org/1999/xlink" width="700" height="500" style="" viewBox="0 0 700 500"><rect x="0" y="0" width="700" height="500" style="fill: rgb(255, 255, 255); fill-opacity: 1;"/><defs id="defs-bfbdf9"><g class="clips"><clipPath id="clipbfbdf9xyplot" class="plotclip"><rect width="590.3199999999999" height="416"/></clipPath><clipPath class="axesclip" id="clipbfbdf9x"><rect x="52" y="0" width="590.3199999999999" height="500"/></clipPath><clipPath class="axesclip" id="clipbfbdf9y"><rect x="0" y="54" width="700" height="416"/></clipPath><clipPath class="axesclip" id="clipbfbdf9xy"><rect x="52" y="54" width="590.3199999999999" height="416"/></clipPath></g><g class="gradients"/></defs><g class="bglayer"><rect class="bg" x="52" y="54" width="590.3199999999999" height="416" style="fill: rgb(229, 236, 246); fill-opacity: 1; stroke-width: 0;"/></g><g class="layer-below"><g class="imagelayer"/><g class="shapelayer"/></g><g class="cartesianlayer"><g class="subplot xy"><g class="layer-subplot"><g class="shapelayer"/><g class="imagelayer"/></g><g class="gridlayer"><g class="x"><path class="xgrid crisp" transform="translate(65.07,0)" d="M0,54v416" style="stroke: rgb(255, 255, 255); stroke-opacity: 1; stroke-width: 1px;"/><path class="xgrid crisp" transform="translate(141.39,0)" d="M0,54v416" style="stroke: rgb(255, 255, 255); stroke-opacity: 1; stroke-width: 1px;"/><path class="xgrid crisp" transform="translate(218.98,0)" d="M0,54v416" style="stroke: rgb(255, 255, 255); stroke-opacity: 1; stroke-width: 1px;"/><path class="xgrid crisp" transform="translate(295.3,0)" d="M0,54v416" style="stroke: rgb(255, 255, 255); stroke-opacity: 1; stroke-width: 1px;"/><path class="xgrid crisp" transform="translate(372.88,0)" d="M0,54v416" style="stroke: rgb(255, 255, 255); stroke-opacity: 1; stroke-width: 1px;"/><path class="xgrid crisp" transform="translate(449.2,0)" d="M0,54v416" style="stroke: rgb(255, 255, 255); stroke-opacity: 1; stroke-width: 1px;"/><path class="xgrid crisp" transform="translate(526.79,0)" d="M0,54v416" style="stroke: rgb(255, 255, 255); stroke-opacity: 1; stroke-width: 1px;"/><path class="xgrid crisp" transform="translate(603.53,0)" d="M0,54v416" style="stroke: rgb(255, 255, 255); stroke-opacity: 1; stroke-width: 1px;"/></g><g class="y"><path class="ygrid crisp" transform="translate(0,413.54)" d="M52,0h590.3199999999999" style="stroke: rgb(255, 255, 255); stroke-opacity: 1; stroke-width: 1px;"/><path class="ygrid crisp" transform="translate(0,356.07)" d="M52,0h590.3199999999999" style="stroke: rgb(255, 255, 255); stroke-opacity: 1; stroke-width: 1px;"/><path class="ygrid crisp" transform="translate(0,241.13)" d="M52,0h590.3199999999999" style="stroke: rgb(255, 255, 255); stroke-opacity: 1; stroke-width: 1px;"/><path class="ygrid crisp" transform="translate(0,183.66)" d="M52,0h590.3199999999999" style="stroke: rgb(255, 255, 255); stroke-opacity: 1; stroke-width: 1px;"/><path class="ygrid crisp" transform="translate(0,126.19)" d="M52,0h590.3199999999999" style="stroke: rgb(255, 255, 255); stroke-opacity: 1; stroke-width: 1px;"/><path class="ygrid crisp" transform="translate(0,68.72)" d="M52,0h590.3199999999999" style="stroke: rgb(255, 255, 255); stroke-opacity: 1; stroke-width: 1px;"/></g></g><g class="zerolinelayer"><path class="yzl zl crisp" transform="translate(0,298.6)" d="M52,0h590.3199999999999" style="stroke: rgb(255, 255, 255); stroke-opacity: 1; stroke-width: 2px;"/></g><path class="xlines-below"/><path class="ylines-below"/><g class="overlines-below"/><g class="xaxislayer-below"/><g class="yaxislayer-below"/><g class="overaxes-below"/><g class="plot" transform="translate(52, 54)" clip-path="url('#clipbfbdf9xyplot')"><g class="scatterlayer mlayer"><g class="trace scatter trace738dc3" style="stroke-miterlimit: 2;"><g class="fills"><g><path class="js-fill" d="M590.32,244.6L0,244.6L0,224.41L13.07,230.67L26.14,205.35L37.95,253.01L51.02,233.97L63.67,233.39L76.74,240.91L89.39,226.21L102.46,247.13L115.53,223.73L128.18,219.96L141.26,243.88L153.9,232.21L166.98,184.61L180.05,286.48L191.85,276.08L204.93,238.23L217.58,217.5L230.65,244.74L243.3,197.29L256.37,211.87L269.44,237.85L282.09,328.88L295.16,226.59L307.81,361.44L320.88,139.2L333.95,209.65L345.76,229.74L358.83,205.38L371.48,322.57L384.55,165.14L397.2,241.13L410.27,265.37L423.34,217.84L435.99,223.85L449.06,210.6L461.71,212.82L474.79,251.39L487.86,344.58L500.09,395.2L513.16,53.95L525.81,174.41L538.88,221.34L551.53,183.47L564.6,170.48L577.67,291.94L590.32,283.95" style="fill: rgb(99, 110, 250); fill-opacity: 0.5; stroke-width: 0;"/></g></g><g class="errorbars"/><g class="lines"><path class="js-line" d="M0,224.41L13.07,230.67L26.14,205.35L37.95,253.01L51.02,233.97L63.67,233.39L76.74,240.91L89.39,226.21L102.46,247.13L115.53,223.73L128.18,219.96L141.26,243.88L153.9,232.21L166.98,184.61L180.05,286.48L191.85,276.08L204.93,238.23L217.58,217.5L230.65,244.74L243.3,197.29L256.37,211.87L269.44,237.85L282.09,328.88L295.16,226.59L307.81,361.44L320.88,139.2L333.95,209.65L345.76,229.74L358.83,205.38L371.48,322.57L384.55,165.14L397.2,241.13L410.27,265.37L423.34,217.84L435.99,223.85L449.06,210.6L461.71,212.82L474.79,251.39L487.86,344.58L500.09,395.2L513.16,53.95L525.81,174.41L538.88,221.34L551.53,183.47L564.6,170.48L577.67,291.94L590.32,283.95" style="vector-effect: non-scaling-stroke; fill: none; stroke: rgb(99, 110, 250); stroke-opacity: 1; stroke-width: 2px; opacity: 1;"/></g><g class="points"/><g class="text"/></g><g class="trace scatter trace60cd53" style="stroke-miterlimit: 2;"><g class="fills"><g><path class="js-fill" d="M590.32,244.6L0,244.6L0,20.8L13.07,233.4L26.14,294.34L37.95,130.83L51.02,128.62L63.67,146.32L76.74,260.94L89.39,172.31L102.46,238.97L115.53,135.87L128.18,190.89L141.26,146.86L153.9,199.43L166.98,195.43L180.05,285.08L191.85,143.35L204.93,233.64L217.58,183.31L230.65,260.3L243.3,228.72L256.37,250.08L269.44,154.7L282.09,78.06L307.81,245.27L320.88,327.55L333.95,255.13L345.76,337.19L358.83,326.19L371.48,295.14L384.55,229.24L397.2,227.39L410.27,230.52L423.34,263.22L435.99,347.41L449.06,341.95L461.71,381.35L474.79,359.9L487.86,303.84L500.09,289.46L513.16,333.56L525.81,333.61L538.88,352.72L551.53,361.08L564.6,317.05L577.67,268.86L590.32,292.34" style="fill: rgb(239, 85, 59); fill-opacity: 0.5; stroke-width: 0;"/></g></g><g class="errorbars"/><g class="lines"><path class="js-line" d="M0,20.8L13.07,233.4L26.14,294.34L37.95,130.83L51.02,128.62L63.67,146.32L76.74,260.94L89.39,172.31L102.46,238.97L115.53,135.87L128.18,190.89L141.26,146.86L153.9,199.43L166.98,195.43L180.05,285.08L191.85,143.35L204.93,233.64L217.58,183.31L230.65,260.3L243.3,228.72L256.37,250.08L269.44,154.7L282.09,78.06L307.81,245.27L320.88,327.55L333.95,255.13L345.76,337.19L358.83,326.19L371.48,295.14L384.55,229.24L397.2,227.39L410.27,230.52L423.34,263.22L435.99,347.41L449.06,341.95L461.71,381.35L474.79,359.9L487.86,303.84L500.09,289.46L513.16,333.56L525.81,333.61L538.88,352.72L551.53,361.08L564.6,317.05L577.67,268.86L590.32,292.34" style="vector-effect: non-scaling-stroke; fill: none; stroke: rgb(239, 85, 59); stroke-opacity: 1; stroke-width: 2px; opacity: 1;"/></g><g class="points"/><g class="text"/></g></g></g><g class="overplot"/><path class="xlines-above crisp" style="fill: none; stroke-width: 1px; stroke: rgb(255, 255, 255); stroke-opacity: 1;" d="M51,470.5H642.3199999999999"/><path class="ylines-above crisp" style="fill: none; stroke-width: 1px; stroke: rgb(255, 255, 255); stroke-opacity: 1;" d="M51.5,54V470"/><g class="overlines-above"/><g class="xaxislayer-above"><g class="xtick"><text text-anchor="middle" x="0" y="485.4" transform="translate(65.07,0)" style="font-family: 'Open Sans', verdana, arial, sans-serif; font-size: 12px; fill: rgb(42, 63, 95); fill-opacity: 1; white-space: pre;">Jan 2017</text></g><g class="xtick"><text text-anchor="middle" x="0" y="485.4" transform="translate(141.39,0)" style="font-family: 'Open Sans', verdana, arial, sans-serif; font-size: 12px; fill: rgb(42, 63, 95); fill-opacity: 1; white-space: pre;">Jul 2017</text></g><g class="xtick"><text text-anchor="middle" x="0" y="485.4" transform="translate(218.98,0)" style="font-family: 'Open Sans', verdana, arial, sans-serif; font-size: 12px; fill: rgb(42, 63, 95); fill-opacity: 1; white-space: pre;">Jan 2018</text></g><g class="xtick"><text text-anchor="middle" x="0" y="485.4" transform="translate(295.3,0)" style="font-family: 'Open Sans', verdana, arial, sans-serif; font-size: 12px; fill: rgb(42, 63, 95); fill-opacity: 1; white-space: pre;">Jul 2018</text></g><g class="xtick"><text text-anchor="middle" x="0" y="485.4" transform="translate(372.88,0)" style="font-family: 'Open Sans', verdana, arial, sans-serif; font-size: 12px; fill: rgb(42, 63, 95); fill-opacity: 1; white-space: pre;">Jan 2019</text></g><g class="xtick"><text text-anchor="middle" x="0" y="485.4" transform="translate(449.2,0)" style="font-family: 'Open Sans', verdana, arial, sans-serif; font-size: 12px; fill: rgb(42, 63, 95); fill-opacity: 1; white-space: pre;">Jul 2019</text></g><g class="xtick"><text text-anchor="middle" x="0" y="485.4" transform="translate(526.79,0)" style="font-family: 'Open Sans', verdana, arial, sans-serif; font-size: 12px; fill: rgb(42, 63, 95); fill-opacity: 1; white-space: pre;">Jan 2020</text></g><g class="xtick"><text text-anchor="middle" x="0" y="485.4" transform="translate(603.53,0)" style="font-family: 'Open Sans', verdana, arial, sans-serif; font-size: 12px; fill: rgb(42, 63, 95); fill-opacity: 1; white-space: pre;">Jul 2020</text></g></g><g class="yaxislayer-above"><g class="ytick"><text text-anchor="end" x="48.6" y="4.199999999999999" transform="translate(0,413.54)" style="font-family: 'Open Sans', verdana, arial, sans-serif; font-size: 12px; fill: rgb(42, 63, 95); fill-opacity: 1; white-space: pre;">−0.1</text></g><g class="ytick"><text text-anchor="end" x="48.6" y="4.199999999999999" transform="translate(0,356.07)" style="font-family: 'Open Sans', verdana, arial, sans-serif; font-size: 12px; fill: rgb(42, 63, 95); fill-opacity: 1; white-space: pre;">−0.05</text></g><g class="ytick"><text text-anchor="end" x="48.6" y="4.199999999999999" transform="translate(0,298.6)" style="font-family: 'Open Sans', verdana, arial, sans-serif; font-size: 12px; fill: rgb(42, 63, 95); fill-opacity: 1; white-space: pre;">0</text></g><g class="ytick"><text text-anchor="end" x="48.6" y="4.199999999999999" transform="translate(0,241.13)" style="font-family: 'Open Sans', verdana, arial, sans-serif; font-size: 12px; fill: rgb(42, 63, 95); fill-opacity: 1; white-space: pre;">0.05</text></g><g class="ytick"><text text-anchor="end" x="48.6" y="4.199999999999999" transform="translate(0,183.66)" style="font-family: 'Open Sans', verdana, arial, sans-serif; font-size: 12px; fill: rgb(42, 63, 95); fill-opacity: 1; white-space: pre;">0.1</text></g><g class="ytick"><text text-anchor="end" x="48.6" y="4.199999999999999" transform="translate(0,126.19)" style="font-family: 'Open Sans', verdana, arial, sans-serif; font-size: 12px; fill: rgb(42, 63, 95); fill-opacity: 1; white-space: pre;">0.15</text></g><g class="ytick"><text text-anchor="end" x="48.6" y="4.199999999999999" transform="translate(0,68.72)" style="font-family: 'Open Sans', verdana, arial, sans-serif; font-size: 12px; fill: rgb(42, 63, 95); fill-opacity: 1; white-space: pre;">0.2</text></g></g><g class="overaxes-above"/></g></g><g class="polarlayer"/><g class="ternarylayer"/><g class="geolayer"/><g class="funnelarealayer"/><g class="pielayer"/><g class="treemaplayer"/><g class="sunburstlayer"/><g class="glimages"/><defs id="topdefs-bfbdf9"><g class="clips"/><clipPath id="legendbfbdf9"><rect width="477" height="29" x="0" y="0"/></clipPath></defs><g class="layer-above"><g class="imagelayer"/><g class="shapelayer"/></g><g class="infolayer"><g class="legend" pointer-events="all" transform="translate(127.5, 12.399999999999963)"><rect class="bg" shape-rendering="crispEdges" style="stroke: rgb(68, 68, 68); stroke-opacity: 1; fill: rgb(255, 255, 255); fill-opacity: 1; stroke-width: 0px;" width="477" height="29" x="0" y="0"/><g class="scrollbox" transform="translate(0, 0)" clip-path="url('#legendbfbdf9')"><g class="groups"><g class="traces" style="opacity: 1;" transform="translate(0, 14.5)"><text class="legendtext user-select-none" text-anchor="start" x="40" y="4.680000000000001" style="font-family: 'Open Sans', verdana, arial, sans-serif; font-size: 12px; fill: rgb(42, 63, 95); fill-opacity: 1; white-space: pre;">S&amp;P 500 Daily %Change</text><g class="layers"><g class="legendfill"><path class="js-fill" d="M5,-2h30v6h-30z" style="stroke-width: 0; fill: rgb(99, 110, 250); fill-opacity: 0.5;"/></g><g class="legendlines"><path class="js-line" d="M5,-2h30" style="fill: none; stroke: rgb(99, 110, 250); stroke-opacity: 1; stroke-width: 2px;"/></g><g class="legendsymbols"><g class="legendpoints"/></g></g><rect class="legendtoggle" pointer-events="all" x="0" y="-9.5" width="190.65625" height="19" style="cursor: pointer; fill: rgb(0, 0, 0); fill-opacity: 0;"/></g><g class="traces" style="opacity: 1;" transform="translate(193.15625, 14.5)"><text class="legendtext user-select-none" text-anchor="start" x="40" y="4.680000000000001" style="font-family: 'Open Sans', verdana, arial, sans-serif; font-size: 12px; fill: rgb(42, 63, 95); fill-opacity: 1; white-space: pre;">Tweet Sentiment Above/Below Average</text><g class="layers"><g class="legendfill"><path class="js-fill" d="M5,-2h30v6h-30z" style="stroke-width: 0; fill: rgb(239, 85, 59); fill-opacity: 0.5;"/></g><g class="legendlines"><path class="js-line" d="M5,-2h30" style="fill: none; stroke: rgb(239, 85, 59); stroke-opacity: 1; stroke-width: 2px;"/></g><g class="legendsymbols"><g class="legendpoints"/></g></g><rect class="legendtoggle" pointer-events="all" x="0" y="-9.5" width="280.375" height="19" style="cursor: pointer; fill: rgb(0, 0, 0); fill-opacity: 0;"/></g></g></g><rect class="scrollbar" rx="20" ry="3" width="0" height="0" style="fill: rgb(128, 139, 164); fill-opacity: 1;" x="0" y="0"/></g><g class="g-gtitle"/><g class="g-xtitle"/><g class="g-ytitle"/></g></svg>