<svg class="main-svg" xmlns="http://www.w3.org/2000/svg" xmlns:xlink="http://www.w3.org/1999/xlink" width="700" height="500" style="" viewBox="0 0 700 500"><rect x="0" y="0" width="700" height="500" style="fill: rgb(255, 255, 255); fill-opacity: 1;"/><defs id="defs-125825"><g class="clips"><clipPath id="clip125825xyplot" class="plotclip"><rect width="595.02" height="416"/></clipPath><clipPath id="clip125825xy2plot" class="plotclip"><rect width="595.02" height="416"/></clipPath><clipPath class="axesclip" id="clip125825x"><rect x="47" y="0" width="595.02" height="500"/></clipPath><clipPath class="axesclip" id="clip125825y"><rect x="0" y="54" width="700" height="416"/></clipPath><clipPath class="axesclip" id="clip125825xy"><rect x="47" y="54" width="595.02" height="416"/></clipPath><clipPath class="axesclip" id="clip125825y2"><rect x="0" y="54" width="700" height="416"/></clipPath><clipPath class="axesclip" id="clip125825xy2"><rect x="47" y="54" width="595.02" height="416"/></clipPath></g><g class="gradients"/></defs><g class="bglayer"><rect class="bg" x="47" y="54" width="595.02" height="416" style="fill: rgb(229, 236, 246); fill-opacity: 1; stroke-width: 0;"/></g><g class="layer-below"><g class="imagelayer"/><g class="shapelayer"/></g><g class="cartesianlayer"><g class="subplot xy"><g class="layer-subplot"><g class="shapelayer"/><g class="imagelayer"/></g><g class="gridlayer"><g class="x"><path class="xgrid crisp" transform="translate(65.75,0)" d="M0,54v416" style="stroke: rgb(255, 255, 255); stroke-opacity: 1; stroke-width: 1px;"/><path class="xgrid crisp" transform="translate(141.17000000000002,0)" d="M0,54v416" style="stroke: rgb(255, 255, 255); stroke-opacity: 1; stroke-width: 1px;"/><path class="xgrid crisp" transform="translate(217.84,0)" d="M0,54v416" style="stroke: rgb(255, 255, 255); stroke-opacity: 1; stroke-width: 1px;"/><path class="xgrid crisp" transform="translate(293.26,0)" d="M0,54v416" style="stroke: rgb(255, 255, 255); stroke-opacity: 1; stroke-width: 1px;"/><path class="xgrid crisp" transform="translate(369.93,0)" d="M0,54v416" style="stroke: rgb(255, 255, 255); stroke-opacity: 1; stroke-width: 1px;"/><path class="xgrid crisp" transform="translate(445.35,0)" d="M0,54v416" style="stroke: rgb(255, 255, 255); stroke-opacity: 1; stroke-width: 1px;"/><path class="xgrid crisp" transform="translate(522.02,0)" d="M0,54v416" style="stroke: rgb(255, 255, 255); stroke-opacity: 1; stroke-width: 1px;"/><path class="xgrid crisp" transform="translate(597.85,0)" d="M0,54v416" style="stroke: rgb(255, 255, 255); stroke-opacity: 1; stroke-width: 1px;"/></g><g class="y"><path class="ygrid crisp" transform="translate(0,421.15)" d="M47,0h595.02" style="stroke: rgb(255, 255, 255); stroke-opacity: 1; stroke-width: 1px;"/><path class="ygrid crisp" transform="translate(0,372.3)" d="M47,0h595.02" style="stroke: rgb(255, 255, 255); stroke-opacity: 1; stroke-width: 1px;"/><path class="ygrid crisp" transform="translate(0,323.45)" d="M47,0h595.02" style="stroke: rgb(255, 255, 255); stroke-opacity: 1; stroke-width: 1px;"/><path class="ygrid crisp" transform="translate(0,274.6)" d="M47,0h595.02" style="stroke: rgb(255, 255, 255); stroke-opacity: 1; stroke-width: 1px;"/><path class="ygrid crisp" transform="translate(0,225.75)" d="M47,0h595.02" style="stroke: rgb(255, 255, 255); stroke-opacity: 1; stroke-width: 1px;"/><path class="ygrid crisp" transform="translate(0,176.9)" d="M47,0h595.02" style="stroke: rgb(255, 255, 255); stroke-opacity: 1; stroke-width: 1px;"/><path class="ygrid crisp" transform="translate(0,128.05)" d="M47,0h595.02" style="stroke: rgb(255, 255, 255); stroke-opacity: 1; stroke-width: 1px;"/><path class="ygrid crisp" transform="translate(0,79.2)" d="M47,0h595.02" style="stroke: rgb(255, 255, 255); stroke-opacity: 1; stroke-width: 1px;"/></g><g class="y2"><path class="y2grid crisp" transform="translate(0,419.11)" d="M47,0h595.02" style="stroke: rgb(255, 255, 255); stroke-opacity: 1; stroke-width: 1px;"/><path class="y2grid crisp" transform="translate(0,368.23)" d="M47,0h595.02" style="stroke: rgb(255, 255, 255); stroke-opacity: 1; stroke-width: 1px;"/><path class="y2grid crisp" transform="translate(0,317.34)" d="M47,0h595.02" style="stroke: rgb(255, 255, 255); stroke-opacity: 1; stroke-width: 1px;"/><path class="y2grid crisp" transform="translate(0,266.46000000000004)" d="M47,0h595.02" style="stroke: rgb(255, 255, 255); stroke-opacity: 1; stroke-width: 1px;"/><path class="y2grid crisp" transform="translate(0,215.57)" d="M47,0h595.02" style="stroke: rgb(255, 255, 255); stroke-opacity: 1; stroke-width: 1px;"/><path class="y2grid crisp" transform="translate(0,164.68)" d="M47,0h595.02" style="stroke: rgb(255, 255, 255); stroke-opacity: 1; stroke-width: 1px;"/><path class="y2grid crisp" transform="translate(0,113.8)" d="M47,0h595.02" style="stroke: rgb(255, 255, 255); stroke-opacity: 1; stroke-width: 1px;"/><path class="y2grid crisp" transform="translate(0,62.91)" d="M47,0h595.02" style="stroke: rgb(255, 255, 255); stroke-opacity: 1; stroke-width: 1px;"/></g></g><g class="zerolinelayer"><path class="yzl zl crisp" transform="translate(0,470)" d="M47,0h595.02" style="stroke: rgb(255, 255, 255); stroke-opacity: 1; stroke-width: 2px;"/><path class="y2zl zl crisp" transform="translate(0,470)" d="M47,0h595.02" style="stroke: rgb(255, 255, 255); stroke-opacity: 1; stroke-width: 2px;"/></g><path class="xlines-below"/><path class="ylines-below"/><g class="overlines-below"><path class="xy2-x"/><path class="xy2-y"/></g><g class="xaxislayer-below"/><g class="yaxislayer-below"/><g class="overaxes-below"><g class="xy2-x"/><g class="xy2-y"/></g><g class="plot" transform="translate(47, 54)" clip-path="url('#clip125825xyplot')"><g class="scatterlayer mlayer"><g class="trace scatter trace011f78" style="stroke-miterlimit: 2;"><g class="fills"><g><path class="js-fill" d="M589.19,416L5.83,416L5.83,232.2L18.75,243.84L31.67,247.07L43.33,216.82L56.25,256.59L68.75,221.56L81.67,218.15L94.17,261.71L107.09,243.52L120,253.97L132.5,242.9L145.42,183.61L157.92,256.62L170.84,228.27L183.76,221.63L195.42,229.47L208.34,245.88L220.84,231.3L233.76,226.85L246.26,258.36L259.18,246.89L272.09,263.36L284.59,192.93L297.51,220.4L310.01,212L322.93,219.62L335.84,244.58L347.51,224.03L360.43,245.99L372.93,228.27L385.85,242.87L398.35,244.17L411.26,221.58L424.18,235.27L436.68,226.55L449.6,239.7L462.1,240.01L475.02,227.67L487.93,210.12L500.02,20.8L512.93,115.17L525.43,155.14L538.35,95.92L550.85,178.6L563.77,209.85L576.69,191.08L589.19,196.82" style="fill: rgb(99, 110, 250); fill-opacity: 0.5; stroke-width: 0;"/></g></g><g class="errorbars"/><g class="lines"><path class="js-line" d="M5.83,232.2L18.75,243.84L31.67,247.07L43.33,216.82L56.25,256.59L68.75,221.56L81.67,218.15L94.17,261.71L107.09,243.52L120,253.97L132.5,242.9L145.42,183.61L157.92,256.62L170.84,228.27L183.76,221.63L195.42,229.47L208.34,245.88L220.84,231.3L233.76,226.85L246.26,258.36L259.18,246.89L272.09,263.36L284.59,192.93L297.51,220.4L310.01,212L322.93,219.62L335.84,244.58L347.51,224.03L360.43,245.99L372.93,228.27L385.85,242.87L398.35,244.17L411.26,221.58L424.18,235.27L436.68,226.55L449.6,239.7L462.1,240.01L475.02,227.67L487.93,210.12L500.02,20.8L512.93,115.17L525.43,155.14L538.35,95.92L550.85,178.6L563.77,209.85L576.69,191.08L589.19,196.82" style="vector-effect: non-scaling-stroke; fill: none; stroke: rgb(99, 110, 250); stroke-opacity: 1; stroke-width: 2px; opacity: 1;"/></g><g class="points"/><g class="text"/></g></g></g><g class="overplot"><g class="xy2" transform="translate(47, 54)" clip-path="url('#clip125825xy2plot')"><g class="barlayer mlayer"><g class="trace bars" style="opacity: 1;"><g class="points"><g class="point"><path d="M1.17,416V374.41H10.5V416Z" style="vector-effect: non-scaling-stroke; opacity: 0.5; stroke-width: 0.5px; fill: rgb(255, 69, 0); fill-opacity: 1; stroke: rgb(229, 236, 246); stroke-opacity: 1;"/></g><g class="point"><path d="M14.08,416V351.51H23.42V416Z" style="vector-effect: non-scaling-stroke; opacity: 0.5; stroke-width: 0.5px; fill: rgb(255, 69, 0); fill-opacity: 1; stroke: rgb(229, 236, 246); stroke-opacity: 1;"/></g><g class="point"><path d="M27,416V370.2H36.33V416Z" style="vector-effect: non-scaling-stroke; opacity: 0.5; stroke-width: 0.5px; fill: rgb(255, 69, 0); fill-opacity: 1; stroke: rgb(229, 236, 246); stroke-opacity: 1;"/></g><g class="point"><path d="M38.67,416V372.21H48V416Z" style="vector-effect: non-scaling-stroke; opacity: 0.5; stroke-width: 0.5px; fill: rgb(255, 69, 0); fill-opacity: 1; stroke: rgb(229, 236, 246); stroke-opacity: 1;"/></g><g class="point"><path d="M51.59,416V372.93H60.92V416Z" style="vector-effect: non-scaling-stroke; opacity: 0.5; stroke-width: 0.5px; fill: rgb(255, 69, 0); fill-opacity: 1; stroke: rgb(229, 236, 246); stroke-opacity: 1;"/></g><g class="point"><path d="M64.09,416V372.66H73.42V416Z" style="vector-effect: non-scaling-stroke; opacity: 0.5; stroke-width: 0.5px; fill: rgb(255, 69, 0); fill-opacity: 1; stroke: rgb(229, 236, 246); stroke-opacity: 1;"/></g><g class="point"><path d="M77,416V350.16H86.34V416Z" style="vector-effect: non-scaling-stroke; opacity: 0.5; stroke-width: 0.5px; fill: rgb(255, 69, 0); fill-opacity: 1; stroke: rgb(229, 236, 246); stroke-opacity: 1;"/></g><g class="point"><path d="M89.5,416V342.33H98.84V416Z" style="vector-effect: non-scaling-stroke; opacity: 0.5; stroke-width: 0.5px; fill: rgb(255, 69, 0); fill-opacity: 1; stroke: rgb(229, 236, 246); stroke-opacity: 1;"/></g><g class="point"><path d="M102.42,416V331.54H111.75V416Z" style="vector-effect: non-scaling-stroke; opacity: 0.5; stroke-width: 0.5px; fill: rgb(255, 69, 0); fill-opacity: 1; stroke: rgb(229, 236, 246); stroke-opacity: 1;"/></g><g class="point"><path d="M115.34,416V321.39H124.67V416Z" style="vector-effect: non-scaling-stroke; opacity: 0.5; stroke-width: 0.5px; fill: rgb(255, 69, 0); fill-opacity: 1; stroke: rgb(229, 236, 246); stroke-opacity: 1;"/></g><g class="point"><path d="M127.84,416V327.68H137.17V416Z" style="vector-effect: non-scaling-stroke; opacity: 0.5; stroke-width: 0.5px; fill: rgb(255, 69, 0); fill-opacity: 1; stroke: rgb(229, 236, 246); stroke-opacity: 1;"/></g><g class="point"><path d="M140.75,416V316.47H150.09V416Z" style="vector-effect: non-scaling-stroke; opacity: 0.5; stroke-width: 0.5px; fill: rgb(255, 69, 0); fill-opacity: 1; stroke: rgb(229, 236, 246); stroke-opacity: 1;"/></g><g class="point"><path d="M153.26,416V324.54H162.59V416Z" style="vector-effect: non-scaling-stroke; opacity: 0.5; stroke-width: 0.5px; fill: rgb(255, 69, 0); fill-opacity: 1; stroke: rgb(229, 236, 246); stroke-opacity: 1;"/></g><g class="point"><path d="M166.17,416V313.62H175.51V416Z" style="vector-effect: non-scaling-stroke; opacity: 0.5; stroke-width: 0.5px; fill: rgb(255, 69, 0); fill-opacity: 1; stroke: rgb(229, 236, 246); stroke-opacity: 1;"/></g><g class="point"><path d="M179.09,416V326.03H188.42V416Z" style="vector-effect: non-scaling-stroke; opacity: 0.5; stroke-width: 0.5px; fill: rgb(255, 69, 0); fill-opacity: 1; stroke: rgb(229, 236, 246); stroke-opacity: 1;"/></g><g class="point"><path d="M190.76,416V333.81H200.09V416Z" style="vector-effect: non-scaling-stroke; opacity: 0.5; stroke-width: 0.5px; fill: rgb(255, 69, 0); fill-opacity: 1; stroke: rgb(229, 236, 246); stroke-opacity: 1;"/></g><g class="point"><path d="M203.67,416V289.97H213.01V416Z" style="vector-effect: non-scaling-stroke; opacity: 0.5; stroke-width: 0.5px; fill: rgb(255, 69, 0); fill-opacity: 1; stroke: rgb(229, 236, 246); stroke-opacity: 1;"/></g><g class="point"><path d="M216.17,416V293.07H225.51V416Z" style="vector-effect: non-scaling-stroke; opacity: 0.5; stroke-width: 0.5px; fill: rgb(255, 69, 0); fill-opacity: 1; stroke: rgb(229, 236, 246); stroke-opacity: 1;"/></g><g class="point"><path d="M229.09,416V234.35H238.42V416Z" style="vector-effect: non-scaling-stroke; opacity: 0.5; stroke-width: 0.5px; fill: rgb(255, 69, 0); fill-opacity: 1; stroke: rgb(229, 236, 246); stroke-opacity: 1;"/></g><g class="point"><path d="M241.59,416V255.24H250.93V416Z" style="vector-effect: non-scaling-stroke; opacity: 0.5; stroke-width: 0.5px; fill: rgb(255, 69, 0); fill-opacity: 1; stroke: rgb(229, 236, 246); stroke-opacity: 1;"/></g><g class="point"><path d="M254.51,416V225.28H263.84V416Z" style="vector-effect: non-scaling-stroke; opacity: 0.5; stroke-width: 0.5px; fill: rgb(255, 69, 0); fill-opacity: 1; stroke: rgb(229, 236, 246); stroke-opacity: 1;"/></g><g class="point"><path d="M267.43,416V271.96H276.76V416Z" style="vector-effect: non-scaling-stroke; opacity: 0.5; stroke-width: 0.5px; fill: rgb(255, 69, 0); fill-opacity: 1; stroke: rgb(229, 236, 246); stroke-opacity: 1;"/></g><g class="point"><path d="M279.93,416V267.56H289.26V416Z" style="vector-effect: non-scaling-stroke; opacity: 0.5; stroke-width: 0.5px; fill: rgb(255, 69, 0); fill-opacity: 1; stroke: rgb(229, 236, 246); stroke-opacity: 1;"/></g><g class="point"><path d="M292.84,416V261.64H302.18V416Z" style="vector-effect: non-scaling-stroke; opacity: 0.5; stroke-width: 0.5px; fill: rgb(255, 69, 0); fill-opacity: 1; stroke: rgb(229, 236, 246); stroke-opacity: 1;"/></g><g class="point"><path d="M305.34,416V248.14H314.68V416Z" style="vector-effect: non-scaling-stroke; opacity: 0.5; stroke-width: 0.5px; fill: rgb(255, 69, 0); fill-opacity: 1; stroke: rgb(229, 236, 246); stroke-opacity: 1;"/></g><g class="point"><path d="M318.26,416V244.18H327.59V416Z" style="vector-effect: non-scaling-stroke; opacity: 0.5; stroke-width: 0.5px; fill: rgb(255, 69, 0); fill-opacity: 1; stroke: rgb(229, 236, 246); stroke-opacity: 1;"/></g><g class="point"><path d="M331.18,416V308.77H340.51V416Z" style="vector-effect: non-scaling-stroke; opacity: 0.5; stroke-width: 0.5px; fill: rgb(255, 69, 0); fill-opacity: 1; stroke: rgb(229, 236, 246); stroke-opacity: 1;"/></g><g class="point"><path d="M342.84,416V267.88H352.18V416Z" style="vector-effect: non-scaling-stroke; opacity: 0.5; stroke-width: 0.5px; fill: rgb(255, 69, 0); fill-opacity: 1; stroke: rgb(229, 236, 246); stroke-opacity: 1;"/></g><g class="point"><path d="M355.76,416V229.9H365.1V416Z" style="vector-effect: non-scaling-stroke; opacity: 0.5; stroke-width: 0.5px; fill: rgb(255, 69, 0); fill-opacity: 1; stroke: rgb(229, 236, 246); stroke-opacity: 1;"/></g><g class="point"><path d="M368.26,416V144.46H377.6V416Z" style="vector-effect: non-scaling-stroke; opacity: 0.5; stroke-width: 0.5px; fill: rgb(255, 69, 0); fill-opacity: 1; stroke: rgb(229, 236, 246); stroke-opacity: 1;"/></g><g class="point"><path d="M381.18,416V202.8H390.51V416Z" style="vector-effect: non-scaling-stroke; opacity: 0.5; stroke-width: 0.5px; fill: rgb(255, 69, 0); fill-opacity: 1; stroke: rgb(229, 236, 246); stroke-opacity: 1;"/></g><g class="point"><path d="M393.68,416V135.79H403.01V416Z" style="vector-effect: non-scaling-stroke; opacity: 0.5; stroke-width: 0.5px; fill: rgb(255, 69, 0); fill-opacity: 1; stroke: rgb(229, 236, 246); stroke-opacity: 1;"/></g><g class="point"><path d="M406.6,416V138.7H415.93V416Z" style="vector-effect: non-scaling-stroke; opacity: 0.5; stroke-width: 0.5px; fill: rgb(255, 69, 0); fill-opacity: 1; stroke: rgb(229, 236, 246); stroke-opacity: 1;"/></g><g class="point"><path d="M419.51,416V126.01H428.85V416Z" style="vector-effect: non-scaling-stroke; opacity: 0.5; stroke-width: 0.5px; fill: rgb(255, 69, 0); fill-opacity: 1; stroke: rgb(229, 236, 246); stroke-opacity: 1;"/></g><g class="point"><path d="M432.01,416V62.26H441.35V416Z" style="vector-effect: non-scaling-stroke; opacity: 0.5; stroke-width: 0.5px; fill: rgb(255, 69, 0); fill-opacity: 1; stroke: rgb(229, 236, 246); stroke-opacity: 1;"/></g><g class="point"><path d="M444.93,416V152.35H454.27V416Z" style="vector-effect: non-scaling-stroke; opacity: 0.5; stroke-width: 0.5px; fill: rgb(255, 69, 0); fill-opacity: 1; stroke: rgb(229, 236, 246); stroke-opacity: 1;"/></g><g class="point"><path d="M457.43,416V52.31H466.77V416Z" style="vector-effect: non-scaling-stroke; opacity: 0.5; stroke-width: 0.5px; fill: rgb(255, 69, 0); fill-opacity: 1; stroke: rgb(229, 236, 246); stroke-opacity: 1;"/></g><g class="point"><path d="M470.35,416V118.08H479.68V416Z" style="vector-effect: non-scaling-stroke; opacity: 0.5; stroke-width: 0.5px; fill: rgb(255, 69, 0); fill-opacity: 1; stroke: rgb(229, 236, 246); stroke-opacity: 1;"/></g><g class="point"><path d="M483.27,416V131.49H492.6V416Z" style="vector-effect: non-scaling-stroke; opacity: 0.5; stroke-width: 0.5px; fill: rgb(255, 69, 0); fill-opacity: 1; stroke: rgb(229, 236, 246); stroke-opacity: 1;"/></g><g class="point"><path d="M495.35,416V100.99H504.68V416Z" style="vector-effect: non-scaling-stroke; opacity: 0.5; stroke-width: 0.5px; fill: rgb(255, 69, 0); fill-opacity: 1; stroke: rgb(229, 236, 246); stroke-opacity: 1;"/></g><g class="point"><path d="M508.27,416V135.35H517.6V416Z" style="vector-effect: non-scaling-stroke; opacity: 0.5; stroke-width: 0.5px; fill: rgb(255, 69, 0); fill-opacity: 1; stroke: rgb(229, 236, 246); stroke-opacity: 1;"/></g><g class="point"><path d="M520.77,416V79.2H530.1V416Z" style="vector-effect: non-scaling-stroke; opacity: 0.5; stroke-width: 0.5px; fill: rgb(255, 69, 0); fill-opacity: 1; stroke: rgb(229, 236, 246); stroke-opacity: 1;"/></g><g class="point"><path d="M533.68,416V50.96H543.02V416Z" style="vector-effect: non-scaling-stroke; opacity: 0.5; stroke-width: 0.5px; fill: rgb(255, 69, 0); fill-opacity: 1; stroke: rgb(229, 236, 246); stroke-opacity: 1;"/></g><g class="point"><path d="M546.19,416V138.36H555.52V416Z" style="vector-effect: non-scaling-stroke; opacity: 0.5; stroke-width: 0.5px; fill: rgb(255, 69, 0); fill-opacity: 1; stroke: rgb(229, 236, 246); stroke-opacity: 1;"/></g><g class="point"><path d="M559.1,416V102.29H568.44V416Z" style="vector-effect: non-scaling-stroke; opacity: 0.5; stroke-width: 0.5px; fill: rgb(255, 69, 0); fill-opacity: 1; stroke: rgb(229, 236, 246); stroke-opacity: 1;"/></g><g class="point"><path d="M572.02,416V20.8H581.35V416Z" style="vector-effect: non-scaling-stroke; opacity: 0.5; stroke-width: 0.5px; fill: rgb(255, 69, 0); fill-opacity: 1; stroke: rgb(229, 236, 246); stroke-opacity: 1;"/></g><g class="point"><path d="M584.52,416V134H593.85V416Z" style="vector-effect: non-scaling-stroke; opacity: 0.5; stroke-width: 0.5px; fill: rgb(255, 69, 0); fill-opacity: 1; stroke: rgb(229, 236, 246); stroke-opacity: 1;"/></g></g></g></g></g></g><path class="xlines-above crisp" style="fill: none; stroke-width: 1px; stroke: rgb(255, 255, 255); stroke-opacity: 1;" d="M46,470.5H643.02"/><path class="ylines-above crisp" style="fill: none; stroke-width: 1px; stroke: rgb(255, 255, 255); stroke-opacity: 1;" d="M46.5,54V470"/><g class="overlines-above"><path class="xy2-x crisp" style="fill: none;" d="M0,0"/><path class="xy2-y crisp" style="fill: none; stroke-width: 1px; stroke: rgb(255, 255, 255); stroke-opacity: 1;" d="M642.52,54V470"/></g><g class="xaxislayer-above"><g class="xtick"><text text-anchor="middle" x="0" y="485.4" transform="translate(65.75,0)" style="font-family: 'Open Sans', verdana, arial, sans-serif; font-size: 12px; fill: rgb(42, 63, 95); fill-opacity: 1; white-space: pre;">Jan 2017</text></g><g class="xtick"><text text-anchor="middle" x="0" y="485.4" transform="translate(141.17000000000002,0)" style="font-family: 'Open Sans', verdana, arial, sans-serif; font-size: 12px; fill: rgb(42, 63, 95); fill-opacity: 1; white-space: pre;">Jul 2017</text></g><g class="xtick"><text text-anchor="middle" x="0" y="485.4" transform="translate(217.84,0)" style="font-family: 'Open Sans', verdana, arial, sans-serif; font-size: 12px; fill: rgb(42, 63, 95); fill-opacity: 1; white-space: pre;">Jan 2018</text></g><g class="xtick"><text text-anchor="middle" x="0" y="485.4" transform="translate(293.26,0)" style="font-family: 'Open Sans', verdana, arial, sans-serif; font-size: 12px; fill: rgb(42, 63, 95); fill-opacity: 1; white-space: pre;">Jul 2018</text></g><g class="xtick"><text text-anchor="middle" x="0" y="485.4" transform="translate(369.93,0)" style="font-family: 'Open Sans', verdana, arial, sans-serif; font-size: 12px; fill: rgb(42, 63, 95); fill-opacity: 1; white-space: pre;">Jan 2019</text></g><g class="xtick"><text text-anchor="middle" x="0" y="485.4" transform="translate(445.35,0)" style="font-family: 'Open Sans', verdana, arial, sans-serif; font-size: 12px; fill: rgb(42, 63, 95); fill-opacity: 1; white-space: pre;">Jul 2019</text></g><g class="xtick"><text text-anchor="middle" x="0" y="485.4" transform="translate(522.02,0)" style="font-family: 'Open Sans', verdana, arial, sans-serif; font-size: 12px; fill: rgb(42, 63, 95); fill-opacity: 1; white-space: pre;">Jan 2020</text></g><g class="xtick"><text text-anchor="middle" x="0" y="485.4" transform="translate(597.85,0)" style="font-family: 'Open Sans', verdana, arial, sans-serif; font-size: 12px; fill: rgb(42, 63, 95); fill-opacity: 1; white-space: pre;">Jul 2020</text></g></g><g class="yaxislayer-above"><g class="ytick"><text text-anchor="end" x="43.6" y="4.199999999999999" transform="translate(0,470)" style="font-family: 'Open Sans', verdana, arial, sans-serif; font-size: 12px; fill: rgb(42, 63, 95); fill-opacity: 1; white-space: pre;">0</text></g><g class="ytick"><text text-anchor="end" x="43.6" y="4.199999999999999" transform="translate(0,421.15)" style="font-family: 'Open Sans', verdana, arial, sans-serif; font-size: 12px; fill: rgb(42, 63, 95); fill-opacity: 1; white-space: pre;">20B</text></g><g class="ytick"><text text-anchor="end" x="43.6" y="4.199999999999999" transform="translate(0,372.3)" style="font-family: 'Open Sans', verdana, arial, sans-serif; font-size: 12px; fill: rgb(42, 63, 95); fill-opacity: 1; white-space: pre;">40B</text></g><g class="ytick"><text text-anchor="end" x="43.6" y="4.199999999999999" transform="translate(0,323.45)" style="font-family: 'Open Sans', verdana, arial, sans-serif; font-size: 12px; fill: rgb(42, 63, 95); fill-opacity: 1; white-space: pre;">60B</text></g><g class="ytick"><text text-anchor="end" x="43.6" y="4.199999999999999" transform="translate(0,274.6)" style="font-family: 'Open Sans', verdana, arial, sans-serif; font-size: 12px; fill: rgb(42, 63, 95); fill-opacity: 1; white-space: pre;">80B</text></g><g class="ytick"><text text-anchor="end" x="43.6" y="4.199999999999999" transform="translate(0,225.75)" style="font-family: 'Open Sans', verdana, arial, sans-serif; font-size: 12px; fill: rgb(42, 63, 95); fill-opacity: 1; white-space: pre;">100B</text></g><g class="ytick"><text text-anchor="end" x="43.6" y="4.199999999999999" transform="translate(0,176.9)" style="font-family: 'Open Sans', verdana, arial, sans-serif; font-size: 12px; fill: rgb(42, 63, 95); fill-opacity: 1; white-space: pre;">120B</text></g><g class="ytick"><text text-anchor="end" x="43.6" y="4.199999999999999" transform="translate(0,128.05)" style="font-family: 'Open Sans', verdana, arial, sans-serif; font-size: 12px; fill: rgb(42, 63, 95); fill-opacity: 1; white-space: pre;">140B</text></g><g class="ytick"><text text-anchor="end" x="43.6" y="4.199999999999999" transform="translate(0,79.2)" style="font-family: 'Open Sans', verdana, arial, sans-serif; font-size: 12px; fill: rgb(42, 63, 95); fill-opacity: 1; white-space: pre;">160B</text></g></g><g class="overaxes-above"><g class="xy2-x"/><g class="xy2-y"><g class="y2tick"><text text-anchor="start" x="645.42" y="4.199999999999999" transform="translate(0,470)" style="font-family: 'Open Sans', verdana, arial, sans-serif; font-size: 12px; fill: rgb(42, 63, 95); fill-opacity: 1; white-space: pre;">0</text></g><g class="y2tick"><text text-anchor="start" x="645.42" y="4.199999999999999" transform="translate(0,419.11)" style="font-family: 'Open Sans', verdana, arial, sans-serif; font-size: 12px; fill: rgb(42, 63, 95); fill-opacity: 1; white-space: pre;">10k</text></g><g class="y2tick"><text text-anchor="start" x="645.42" y="4.199999999999999" transform="translate(0,368.23)" style="font-family: 'Open Sans', verdana, arial, sans-serif; font-size: 12px; fill: rgb(42, 63, 95); fill-opacity: 1; white-space: pre;">20k</text></g><g class="y2tick"><text text-anchor="start" x="645.42" y="4.199999999999999" transform="translate(0,317.34)" style="font-family: 'Open Sans', verdana, arial, sans-serif; font-size: 12px; fill: rgb(42, 63, 95); fill-opacity: 1; white-space: pre;">30k</text></g><g class="y2tick"><text text-anchor="start" x="645.42" y="4.199999999999999" transform="translate(0,266.46000000000004)" style="font-family: 'Open Sans', verdana, arial, sans-serif; font-size: 12px; fill: rgb(42, 63, 95); fill-opacity: 1; white-space: pre;">40k</text></g><g class="y2tick"><text text-anchor="start" x="645.42" y="4.199999999999999" transform="translate(0,215.57)" style="font-family: 'Open Sans', verdana, arial, sans-serif; font-size: 12px; fill: rgb(42, 63, 95); fill-opacity: 1; white-space: pre;">50k</text></g><g class="y2tick"><text text-anchor="start" x="645.42" y="4.199999999999999" transform="translate(0,164.68)" style="font-family: 'Open Sans', verdana, arial, sans-serif; font-size: 12px; fill: rgb(42, 63, 95); fill-opacity: 1; white-space: pre;">60k</text></g><g class="y2tick"><text text-anchor="start" x="645.42" y="4.199999999999999" transform="translate(0,113.8)" style="font-family: 'Open Sans', verdana, arial, sans-serif; font-size: 12px; fill: rgb(42, 63, 95); fill-opacity: 1; white-space: pre;">70k</text></g><g class="y2tick"><text text-anchor="start" x="645.42" y="4.199999999999999" transform="translate(0,62.91)" style="font-family: 'Open Sans', verdana, arial, sans-serif; font-size: 12px; fill: rgb(42, 63, 95); fill-opacity: 1; white-space: pre;">80k</text></g></g></g></g><g class="subplot xy2"/></g><g class="polarlayer"/><g class="ternarylayer"/><g class="geolayer"/><g class="funnelarealayer"/><g class="pielayer"/><g class="treemaplayer"/><g class="sunburstlayer"/><g class="glimages"/><defs id="topdefs-125825"><g class="clips"/><clipPath id="legend125825"><rect width="330" height="29" x="0" y="0"/></clipPath></defs><g class="layer-above"><g class="imagelayer"/><g class="shapelayer"/></g><g class="infolayer"><g class="legend" pointer-events="all" transform="translate(198.5, 12.399999999999963)"><rect class="bg" shape-rendering="crispEdges" style="stroke: rgb(68, 68, 68); stroke-opacity: 1; fill: rgb(255, 255, 255); fill-opacity: 1; stroke-width: 0px;" width="330" height="29" x="0" y="0"/><g class="scrollbox" transform="translate(0, 0)" clip-path="url('#legend125825')"><g class="groups"><g class="traces" style="opacity: 1;" transform="translate(0, 14.5)"><text class="legendtext user-select-none" text-anchor="start" x="40" y="4.680000000000001" style="font-family: 'Open Sans', verdana, arial, sans-serif; font-size: 12px; fill: rgb(42, 63, 95); fill-opacity: 1; white-space: pre;">S&amp;P 500 Trading Volume</text><g class="layers"><g class="legendfill"><path class="js-fill" d="M5,-2h30v6h-30z" style="stroke-width: 0; fill: rgb(99, 110, 250); fill-opacity: 0.5;"/></g><g class="legendlines"><path class="js-line" d="M5,-2h30" style="fill: none; stroke: rgb(99, 110, 250); stroke-opacity: 1; stroke-width: 2px;"/></g><g class="legendsymbols"><g class="legendpoints"/></g></g><rect class="legendtoggle" pointer-events="all" x="0" y="-9.5" width="191" height="19" style="cursor: pointer; fill: rgb(0, 0, 0); fill-opacity: 0;"/></g><g class="traces" style="opacity: 1;" transform="translate(193.5, 14.5)"><text class="legendtext user-select-none" text-anchor="start" x="40" y="4.680000000000001" style="font-family: 'Open Sans', verdana, arial, sans-serif; font-size: 12px; fill: rgb(42, 63, 95); fill-opacity: 1; white-space: pre;">Words Tweeted</text><g class="layers" style="opacity: 1;"><g class="legendfill"/><g class="legendlines"/><g class="legendsymbols"><g class="legendpoints"><path class="legendundefined" d="M6,6H-6V-6H6Z" transform="translate(20,0)" style="stroke-width: 0.5px; fill: rgb(255, 69, 0); fill-opacity: 1; stroke: rgb(229, 236, 246); stroke-opacity: 1;"/></g></g></g><rect class="legendtoggle" pointer-events="all" x="0" y="-9.5" width="133.828125" height="19" style="cursor: pointer; fill: rgb(0, 0, 0); fill-opacity: 0;"/></g></g></g><rect class="scrollbar" rx="20" ry="3" width="0" height="0" style="fill: rgb(128, 139, 164); fill-opacity: 1;" x="0" y="0"/></g><g class="g-gtitle"/><g class="g-xtitle"/><g class="g-ytitle"/><g class="g-y2title"/></g></svg>